<svg xmlns="http://www.w3.org/2000/svg" width="256" height="256"><path fill-opacity=".016" d="M0 128.004v128.004l128.25-.254 128.25-.254.254-127.75L257.008 0H0v128.004m.485.496c0 70.4.119 99.053.265 63.672.146-35.38.146-92.98 0-128C.604 29.153.485 58.1.485 128.5" fill="#1976D2" fill-rule="evenodd"/><path fill-opacity=".083" d="M112.5 3.067c-42.97 5.859-79.13 31.388-98.585 69.6-18.538 36.41-18.273 79.715.71 116.47 5.901 11.426 12.451 20.389 22.002 30.109 8.282 8.427 12.5 10.516 18.836 9.327 4.821-.904 11.211-6.753 12.659-11.586 1.978-6.6.518-10.237-7.734-19.268-13.069-14.303-20.425-27.317-24.995-44.219-1.526-5.641-1.88-10.3-1.826-24 .061-15.5.304-17.776 2.757-25.788 10.766-35.175 38.803-60.588 74.201-67.253 11.737-2.211 30.56-1.56 41.975 1.451 16.599 4.378 31.738 13.39 44.065 26.231 8.159 8.498 11.79 13.589 16.663 23.359 7.838 15.715 10.211 27.384 9.503 46.732-.94 25.714-8.379 43.165-27.04 63.43-8.136 8.836-9.563 12.386-7.724 19.215 1.329 4.935 7.591 10.762 12.57 11.696 6.006 1.127 10.747-.999 17.86-8.008 17.802-17.541 30.933-42.516 35.154-66.862.878-5.062 2.013-10.585 2.522-12.274 1.122-3.716 1.245-22.429.148-22.429-.428 0-1.345-4.154-2.036-9.231-1.397-10.256-6.404-26.265-11.241-35.94-17.907-35.821-52.094-61.811-91.217-69.345-10.234-1.971-29.944-2.683-39.227-1.417m-2.077 47.468C90.998 54.801 72.058 67.716 60.7 84.441c-9.359 13.783-3.818 28.352 11.148 29.306 7.237.461 11.288-1.937 17.437-10.324 20.374-27.787 59.277-27.053 78.751 1.485 1.862 2.728 5.132 5.942 7.267 7.142 7.803 4.386 19.104.864 23.307-7.262 2.786-5.388 1.522-13.627-3.127-20.377-11.835-17.184-32.303-30.715-51.917-34.32-7.898-1.452-25.587-1.215-33.143.444m7.459 48.786c-13.516 5.051-21.853 16.583-21.872 30.251-.013 9.504 2.169 15.368 8.156 21.919 6.901 7.551 13.881 10.824 23.175 10.865 8.463.038 12.758-1.255 19.067-5.74 20.293-14.428 17.861-44.152-4.559-55.718-5.407-2.789-18.429-3.646-23.967-1.577M.374 130.5c.002 6.05.167 8.396.366 5.213.199-3.182.197-8.132-.004-11-.201-2.867-.364-.263-.362 5.787m57.126.771c-4.498 2.516-8.509 9.222-8.487 14.191.023 5.038 5.425 18.968 10.538 27.172 6.134 9.841 14.861 18.725 24.7 25.144 4.264 2.781 8.257 5.225 8.874 5.43.699.233-.871 5.021-4.158 12.679-5.972 13.914-6.569 18.785-3.007 24.548 3.088 4.997 7.184 7.087 19.04 9.72 14.617 3.245 32.383 3.245 47 0 11.77-2.613 15.955-4.727 18.95-9.573 3.436-5.56 2.756-11.114-3.052-24.921-4.596-10.926-4.936-12.23-3.424-13.145 19.982-12.093 31.759-25.194 38.636-42.978 4.211-10.891 4.664-16.874 1.668-22.018-4.57-7.844-14.254-10.628-21.941-6.308-4.614 2.593-6.893 6.048-9.424 14.288-3.862 12.571-15.401 24.695-28.089 29.512-8.042 3.053-20.822 3.748-29.241 1.589-13.17-3.377-25.014-12.958-30.874-24.978C83.444 148.004 82 144.5 82 143.837c0-.663-.943-3.154-2.096-5.535-4.08-8.429-14.218-11.611-22.404-7.031" fill="#1976D2" fill-rule="evenodd"/><path fill-opacity=".218" d="M106.357 4.571C81.61 8.728 56.707 21.582 38.6 39.544 21.363 56.644 10.755 75.326 4.274 100c-3.478 13.244-4.313 37.51-1.778 51.693 3.324 18.594 9.487 33.919 20.03 49.807 6.653 10.026 18.309 22.719 22.837 24.868C55.778 231.31 68 224.318 68 213.417c0-6.375-1.217-8.625-9.398-17.373-27.869-29.8-34.281-71.371-16.61-107.682C53.838 64.02 73.826 46.807 99.729 38.641c63.304-19.96 128.005 30.568 123.933 96.785-1.477 24.021-9.918 43.2-27.097 61.569-7.891 8.438-9.357 11.739-8.248 18.57 1.601 9.868 12.802 15.319 22.257 10.833 1.857-.881 6.29-4.691 9.851-8.466 16.942-17.959 28.827-41.474 33.073-65.436 3.363-18.978 1.518-44.661-4.489-62.496-15.072-44.747-54.1-78.005-100.337-85.504-11.173-1.812-31.291-1.776-42.315.075m7.143 45.912c-15.968 2.971-30.563 10.582-42.016 21.91-8.309 8.219-14.079 16.564-15.002 21.698-1.592 8.859 4.988 18.107 13.827 19.433 7.191 1.078 12.449-1.848 18.654-10.377 11.03-15.166 27.157-22.22 45.697-19.988 12.488 1.504 25.528 9.609 32.851 20.42 7.509 11.085 18.088 13.392 26.511 5.782 7.662-6.922 7.794-14.756.431-25.533C177.03 58.33 144.141 44.782 113.5 50.483m4.505 49.124c-6.591 2.395-12.522 6.831-16.113 12.05-11.063 16.079-5.958 37.344 11.253 46.877 4.885 2.706 6.189 2.966 14.855 2.961 8.355-.004 10.11-.326 14.563-2.672 5.79-3.05 11.351-8.79 14.559-15.028 3.321-6.457 3.721-17.581.9-25.057-2.653-7.029-9.506-14.359-16.522-17.671-6.534-3.084-17.2-3.747-23.495-1.46m-57.637 30.481c-4.378 1.269-10.005 7.802-10.806 12.546-1.145 6.781 4.282 21.33 12.445 33.366 5.224 7.702 17.528 19.083 25.375 23.471 3.64 2.036 6.618 4.072 6.618 4.526 0 .454-2.25 6.08-5 12.503-5.742 13.41-6.311 18.278-2.75 23.51 3.422 5.028 6.798 7.038 15.166 9.032 19.775 4.711 34.359 4.719 54.041.03 8.492-2.023 11.861-4.019 15.293-9.062 4.083-5.999 3.417-9.253-6.595-32.228l-2.056-4.717 6.101-3.252c7.455-3.974 20.584-16.132 25.947-24.029 5.107-7.522 9.219-16.263 11.347-24.125 2.215-8.181 1.032-13.047-4.352-17.911-9.53-8.61-22.569-4.15-26.493 9.061-4.143 13.953-12.613 24.094-25.426 30.443l-8.572 4.248h-12.576c-12.455 0-12.649-.035-20.383-3.728-12.972-6.194-21.396-16.051-26.164-30.613-2.197-6.709-6.611-11.81-11.36-13.129-4.261-1.184-5.542-1.176-9.8.058" fill="#1976D2" fill-rule="evenodd"/><path fill-opacity=".383" d="M120.081 99.537c-6.826 1.9-10.895 4.407-15.597 9.612-5.71 6.321-7.883 12.056-7.899 20.851-.062 33.329 44.297 44.201 59.415 14.563 3.106-6.09 3.497-7.716 3.469-14.462-.041-10.034-2.83-16.403-10.089-23.037-8.239-7.529-19.186-10.342-29.299-7.527M56.898 132.27c-9.047 6.043-8.975 17.05.227 34.819 7.23 13.961 18.877 25.903 32.178 32.992 3.218 1.715 5.625 3.629 5.364 4.265-.261.635-2.599 6.096-5.197 12.136-5.873 13.657-6.307 16.633-3.282 22.518 2.942 5.727 7.795 8.203 21.469 10.956 13.399 2.697 28.287 2.697 41.686 0 13.674-2.753 18.527-5.229 21.469-10.956 3.025-5.885 2.591-8.861-3.282-22.518a2666.73 2666.73 0 0 1-5.181-12.095c-.252-.612 2.938-3.229 7.088-5.815 16.751-10.441 28.323-24.935 34.695-43.456 4.917-14.291-.901-25.103-13.514-25.112-8.179-.007-13.281 4.266-15.628 13.086-3.289 12.363-13.54 24.587-25.645 30.578-18.408 9.113-39.56 5.852-54.508-8.403-7.086-6.759-10.147-11.639-13.483-21.499-1.34-3.959-3.204-8.047-4.142-9.085-4.69-5.182-14.435-6.339-20.314-2.411" fill="#1976D2" fill-rule="evenodd"/></svg>